<?xml version="1.0" standalone="no"?>
<!DOCTYPE svg PUBLIC "-//W3C//DTD SVG 20010904//EN"
 "http://www.w3.org/TR/2001/REC-SVG-20010904/DTD/svg10.dtd">
<svg version="1.0" xmlns="http://www.w3.org/2000/svg"
 width="700.000000pt" height="700.000000pt" viewBox="0 0 700.000000 700.000000"
 preserveAspectRatio="xMidYMid meet">
<metadata>
Created by potrace 1.14, written by Peter Selinger 2001-2017
</metadata>
<g transform="translate(0.000000,700.000000) scale(0.100000,-0.100000)"
fill="#000000" stroke="none">
<path d="M3467 6894 c-1 -1 -60 -4 -132 -8 -174 -8 -211 -11 -415 -42 -136
-21 -433 -100 -570 -151 -8 -3 -19 -7 -25 -8 -82 -20 -464 -208 -616 -305
-188 -119 -272 -181 -438 -326 -620 -542 -1012 -1262 -1131 -2079 -27 -189
-28 -183 28 -227 26 -21 63 -51 82 -68 19 -17 96 -76 170 -132 438 -331 863
-528 1261 -585 71 -10 378 -10 454 0 214 29 464 128 676 270 115 76 142 96
294 218 101 81 175 142 420 347 105 88 328 245 487 343 59 37 251 133 318 159
30 12 69 28 85 35 139 62 473 136 682 151 171 12 394 8 538 -11 16 -2 52 -7
80 -10 78 -11 310 -61 414 -90 185 -52 431 -146 619 -237 46 -22 85 -38 88
-35 16 16 -85 410 -141 547 -8 19 -30 78 -51 130 -44 114 -135 300 -211 430
-52 88 -179 281 -216 326 -9 10 -56 69 -105 129 -299 366 -683 668 -1127 885
-205 100 -510 212 -639 236 -16 3 -33 7 -36 9 -7 4 -214 46 -291 59 -19 3 -62
9 -95 12 -32 3 -70 7 -84 10 -14 2 -81 7 -150 10 -69 3 -147 6 -173 7 -26 2
-49 2 -50 1z"/>
<path d="M5178 4045 c-2 -1 -38 -5 -81 -9 -329 -28 -657 -147 -966 -350 -168
-111 -234 -161 -485 -371 -348 -292 -492 -401 -679 -514 -206 -125 -481 -233
-677 -266 -19 -3 -48 -8 -65 -11 -101 -18 -182 -22 -355 -19 -107 2 -206 6
-220 9 -14 3 -56 10 -95 16 -381 59 -782 232 -1210 521 -71 49 -152 104 -179
124 l-48 37 7 -64 c7 -67 31 -236 40 -278 2 -14 10 -50 16 -80 6 -30 17 -80
26 -110 42 -155 65 -237 73 -255 5 -11 18 -48 29 -82 90 -275 296 -648 506
-919 356 -457 788 -795 1330 -1039 266 -120 652 -224 965 -260 212 -25 629
-25 770 -1 14 2 48 7 75 10 85 9 225 35 335 62 58 14 112 27 120 29 43 10 255
81 320 107 329 130 629 304 905 525 140 112 395 366 509 508 183 229 365 530
476 789 95 223 191 536 220 724 6 37 13 78 15 92 24 140 39 316 39 474 l1 109
-32 17 c-18 10 -38 22 -45 28 -27 21 -338 173 -448 218 -189 77 -430 152 -575
180 -22 4 -47 9 -55 10 -80 18 -274 36 -402 38 -86 2 -158 2 -160 1z"/>
</g>
</svg>
